<svg xmlns="http://www.w3.org/2000/svg">
    <symbol id="calendar" class="icon-back" viewBox="0 0 511.634 511.634">
        <path d="M482.513,83.942c-7.225-7.233-15.797-10.85-25.694-10.85h-36.541v-27.41c0-12.56-4.477-23.315-13.422-32.261
		C397.906,4.475,387.157,0,374.591,0h-18.268c-12.565,0-23.318,4.475-32.264,13.422c-8.949,8.945-13.422,19.701-13.422,32.261v27.41
		h-109.63v-27.41c0-12.56-4.475-23.315-13.422-32.261C178.64,4.475,167.886,0,155.321,0H137.05
		c-12.562,0-23.317,4.475-32.264,13.422c-8.945,8.945-13.421,19.701-13.421,32.261v27.41H54.823c-9.9,0-18.464,3.617-25.697,10.85
		c-7.233,7.232-10.85,15.8-10.85,25.697v365.453c0,9.89,3.617,18.456,10.85,25.693c7.232,7.231,15.796,10.849,25.697,10.849h401.989
		c9.897,0,18.47-3.617,25.694-10.849c7.234-7.234,10.852-15.804,10.852-25.693V109.639
		C493.357,99.739,489.743,91.175,482.513,83.942z M347.187,45.686c0-2.667,0.849-4.858,2.56-6.567
		c1.711-1.711,3.901-2.568,6.57-2.568h18.268c2.67,0,4.853,0.854,6.57,2.568c1.712,1.712,2.567,3.903,2.567,6.567v82.224
		c0,2.666-0.855,4.853-2.567,6.567c-1.718,1.709-3.9,2.568-6.57,2.568h-18.268c-2.669,0-4.859-0.855-6.57-2.568
		c-1.711-1.715-2.56-3.901-2.56-6.567V45.686z M127.915,45.686c0-2.667,0.855-4.858,2.568-6.567
		c1.714-1.711,3.901-2.568,6.567-2.568h18.271c2.667,0,4.858,0.854,6.567,2.568c1.711,1.712,2.57,3.903,2.57,6.567v82.224
		c0,2.666-0.855,4.856-2.57,6.567c-1.713,1.709-3.9,2.568-6.567,2.568H137.05c-2.666,0-4.856-0.855-6.567-2.568
		c-1.709-1.715-2.568-3.901-2.568-6.567V45.686z M456.812,475.088H54.823v-292.36h401.989V475.088z"/>
    </symbol>
    <symbol id="star" class="icon-back" viewBox="0 0 512 512">
        <path d="M392.327,226.071c0-16.209-13.186-29.394-29.395-29.394H308.91c13.125-14.753,21.703-31.552,23.36-46.623
			c1.012-9.205-1.832-18.342-7.805-25.069c-5.459-6.149-12.924-9.576-21.02-9.651c-0.094-0.001-0.188-0.001-0.281-0.001
			c-7.831,0-15.181,3.016-20.728,8.512c-5.548,5.497-8.618,12.82-8.654,20.635c-0.285,1.711-3.295,7.61-10.66,14.614
			c-6.03,5.736-16.446,13.621-31.825,18.614c-6.03,1.958-11.541,5.563-16.379,10.715c-2.539,2.702-6.341,6.434-11.048,10.18
			c-2.31-1.224-4.937-1.924-7.728-1.924h-51.307c-9.136,0-16.568,7.432-16.568,16.568v136.818c0,9.136,7.432,16.568,16.568,16.568
			h51.307c6.228,0,11.659-3.458,14.489-8.551h130.923c13.851,0,25.119-11.268,25.119-25.119c0-4.657-1.273-9.021-3.491-12.765
			c7.217-4.418,12.042-12.376,12.042-21.44c0-4.657-1.273-9.021-3.491-12.765c7.217-4.418,12.042-12.376,12.042-21.44
			c0-5.242-1.614-10.114-4.371-14.146C387.197,245.114,392.327,236.18,392.327,226.071z M362.932,239.432h-4.276
			c-4.427,0-8.017,3.589-8.017,8.017c0,4.427,3.589,8.017,8.017,8.017c5.01,0,9.086,4.076,9.086,9.086s-4.076,9.086-9.086,9.086
			h-8.551c-4.427,0-8.017,3.589-8.017,8.017c0,4.427,3.589,8.017,8.017,8.017c5.01,0,9.086,4.076,9.086,9.086
			c0,5.01-4.076,9.086-9.086,9.086h-8.551c-4.427,0-8.017,3.589-8.017,8.017c0,4.427,3.589,8.017,8.017,8.017
			c5.01,0,9.086,4.076,9.086,9.086c0,5.01-4.076,9.086-9.086,9.086H212.71v-77.495c0-4.427-3.589-8.017-8.017-8.017
			s-8.017,3.589-8.017,8.017v85.511c0,0.295-0.239,0.534-0.534,0.534h-51.307c-0.295,0-0.534-0.239-0.534-0.534V213.244
			c0-0.295,0.239-0.534,0.534-0.534h51.307c0.295,0,0.534,0.239,0.534,0.534v17.103c0,4.427,3.589,8.017,8.017,8.017
			s8.017-3.589,8.017-8.017v-17.103c0-0.389-0.032-0.77-0.059-1.152c6.011-4.653,10.818-9.357,13.954-12.695
			c2.967-3.161,6.211-5.327,9.642-6.44c18.87-6.126,31.569-15.99,38.898-23.186c9.186-9.019,14.669-18.421,14.669-25.152
			c0-3.556,1.387-6.889,3.906-9.385c2.55-2.527,5.927-3.862,9.576-3.867c4.494,0.042,7.47,2.341,9.177,4.263
			c2.926,3.295,4.366,8.033,3.857,12.672c-1.751,15.929-14.49,35.619-32.454,50.161c-2.639,2.137-3.646,5.705-2.513,8.906
			c1.133,3.201,4.161,5.341,7.557,5.341h74.01c7.368,0,13.361,5.993,13.361,13.361S370.299,239.432,362.932,239.432z"/>
        <path d="M170.489,316.306c-4.427,0-8.059,3.632-8.059,8.059c0,4.427,3.632,8.059,8.059,8.059c4.427,0,8.059-3.632,8.059-8.059
			C178.549,319.939,174.917,316.306,170.489,316.306z"/>
        <path d="M497.71,256l13.772-36.443c1.003-2.651,0.53-5.634-1.243-7.847l-24.359-30.404l1.836-38.915
			c0.134-2.83-1.238-5.523-3.606-7.078l-32.562-21.389l-10.278-37.578c-0.748-2.734-2.884-4.87-5.617-5.617l-37.578-10.278
			L376.686,27.89c-1.556-2.369-4.248-3.735-7.078-3.606l-38.915,1.836L300.289,1.761c-2.212-1.772-5.195-2.245-7.847-1.243
			l-36.443,13.772L219.558,0.519c-2.653-1.003-5.635-0.53-7.847,1.243l-30.404,24.359l-38.915-1.836
			c-2.844-0.134-5.523,1.238-7.078,3.606l-21.388,32.562L76.348,70.731c-2.734,0.748-4.87,2.884-5.617,5.617l-10.278,37.578
			l-32.562,21.388c-2.369,1.556-3.74,4.248-3.606,7.078l1.836,38.915L1.762,211.711c-1.772,2.212-2.245,5.195-1.243,7.847L14.29,256
			L0.518,292.442c-1.003,2.651-0.53,5.634,1.243,7.847l24.359,30.404l-1.836,38.915c-0.134,2.83,1.238,5.523,3.606,7.078
			l32.562,21.389l10.278,37.578c0.748,2.734,2.884,4.87,5.617,5.617l37.578,10.278l21.388,32.562
			c1.556,2.369,4.253,3.731,7.078,3.606l38.915-1.836l30.404,24.359c2.212,1.773,5.196,2.246,7.847,1.243l36.443-13.772
			l36.443,13.772c0.92,0.347,1.879,0.517,2.833,0.517c1.796,0,3.569-0.603,5.013-1.76l30.404-24.359l38.915,1.836
			c2.839,0.126,5.522-1.238,7.078-3.606l21.389-32.562l37.578-10.278c2.734-0.748,4.87-2.884,5.617-5.617l10.278-37.578
			l32.562-21.389c2.369-1.556,3.74-4.248,3.606-7.078l-1.836-38.915l24.359-30.404c1.772-2.212,2.245-5.195,1.243-7.847L497.71,256z
			 M481.641,258.834l13.226,34.999l-23.394,29.199c-1.221,1.523-1.844,3.44-1.752,5.39l1.764,37.373l-31.271,20.541
			c-1.631,1.071-2.817,2.702-3.332,4.586l-9.871,36.089l-36.089,9.871c-1.883,0.515-3.513,1.7-4.586,3.332l-20.541,31.271
			l-37.373-1.764c-1.951-0.09-3.867,0.531-5.39,1.752l-29.199,23.394l-34.999-13.226c-0.913-0.345-1.874-0.517-2.834-0.517
			c-0.96,0-1.921,0.173-2.834,0.517l-34.999,13.226l-29.199-23.394c-1.523-1.221-3.443-1.842-5.39-1.752l-37.373,1.764
			l-20.541-31.271c-1.071-1.631-2.702-2.817-4.586-3.332l-36.089-9.871l-9.871-36.089c-0.515-1.883-1.7-3.513-3.332-4.586
			l-31.271-20.541l1.764-37.373c0.092-1.951-0.531-3.867-1.752-5.39l-23.394-29.199l13.227-34.999c0.69-1.826,0.69-3.842,0-5.668
			l-13.227-34.999l23.394-29.199c1.221-1.523,1.844-3.44,1.752-5.39l-1.764-37.373l31.271-20.541
			c1.631-1.071,2.817-2.702,3.332-4.586l9.871-36.089l36.089-9.871c1.883-0.515,3.513-1.7,4.586-3.332l20.541-31.271l37.373,1.764
			c1.948,0.091,3.867-0.531,5.39-1.752l29.199-23.394l34.999,13.227c1.827,0.69,3.842,0.69,5.668,0l34.999-13.227l29.199,23.394
			c1.523,1.222,3.441,1.844,5.39,1.752l37.373-1.764l20.541,31.271c1.071,1.631,2.702,2.817,4.586,3.332l36.089,9.871l9.871,36.089
			c0.515,1.883,1.7,3.513,3.332,4.586l31.271,20.541l-1.764,37.373c-0.092,1.951,0.531,3.867,1.752,5.39l23.394,29.199
			l-13.227,34.999C480.951,254.993,480.951,257.008,481.641,258.834z"/>
        <path d="M406.634,117.574c-1.995-2.172-4.064-4.332-6.153-6.42c-2.089-2.088-4.248-4.158-6.42-6.153
			c-3.261-2.994-8.332-2.778-11.327,0.484c-2.994,3.261-2.778,8.333,0.484,11.327c2.003,1.84,3.997,3.75,5.925,5.678
			c1.927,1.927,3.838,3.922,5.679,5.926c1.581,1.722,3.741,2.595,5.908,2.595c1.937,0,3.88-0.698,5.419-2.111
			C409.411,125.907,409.628,120.835,406.634,117.574z"/>
        <path d="M365.592,83.125c-38.66-24.63-85.206-35.576-131.059-30.829c-46.525,4.82-90.395,25.722-123.531,58.857
			c-36.467,36.467-57.699,84.911-59.785,136.408C49.144,298.755,66.1,348.459,98.963,387.515c1.585,1.884,3.853,2.855,6.139,2.855
			c1.822,0,3.654-0.618,5.157-1.882c3.387-2.851,3.823-7.908,0.973-11.295c-30.281-35.989-45.905-81.795-43.995-128.982
			c1.922-47.462,21.49-92.11,55.101-125.72c30.54-30.541,70.972-49.806,113.846-54.247c42.275-4.38,85.171,5.709,120.792,28.403
			c3.735,2.379,8.689,1.281,11.068-2.453C370.424,90.459,369.325,85.504,365.592,83.125z"/>
        <path d="M428.511,146.043c-2.379-3.735-7.337-4.833-11.069-2.454c-3.735,2.379-4.832,7.335-2.453,11.068
			c22.694,35.622,32.781,78.52,28.403,120.792c-4.441,42.874-23.706,83.305-54.246,113.847
			c-33.611,33.61-78.259,53.179-125.72,55.101c-47.179,1.918-92.994-13.713-128.982-43.993c-3.387-2.851-8.444-2.415-11.295,0.973
			c-2.851,3.387-2.415,8.444,0.973,11.295c36.921,31.065,83.351,47.917,131.566,47.916c2.789,0,5.589-0.057,8.389-0.17
			c51.497-2.085,99.94-23.317,136.408-59.784c33.136-33.136,54.039-77.007,58.857-123.532
			C464.09,231.246,453.141,184.702,428.511,146.043z"/>
    </symbol>
    <symbol id="java" class="icon-back" viewBox="0 0 305.001 305.001">
        <path id="XMLID_8_" d="M150.99,56.513c-14.093,9.912-30.066,21.147-38.624,39.734c-14.865,32.426,30.418,67.798,32.353,69.288
		c0.45,0.347,0.988,0.519,1.525,0.519c0.57,0,1.141-0.195,1.605-0.583c0.899-0.752,1.154-2.029,0.614-3.069
		c-0.164-0.316-16.418-31.888-15.814-54.539c0.214-7.888,11.254-16.837,22.942-26.312c10.705-8.678,22.839-18.514,29.939-30.02
		c15.586-25.327-1.737-50.231-1.914-50.479c-0.688-0.966-1.958-1.317-3.044-0.84c-1.085,0.478-1.686,1.652-1.438,2.811
		c0.035,0.164,3.404,16.633-5.97,33.6C169.301,43.634,160.816,49.603,150.99,56.513z"/>
        <path id="XMLID_9_" d="M210.365,67.682c0.994-0.749,1.286-2.115,0.684-3.205c-0.602-1.09-1.913-1.571-3.077-1.129
		c-2.394,0.91-58.627,22.585-58.627,48.776c0,18.053,7.712,27.591,13.343,34.556c2.209,2.731,4.116,5.09,4.744,7.104
		c1.769,5.804-2.422,16.294-4.184,19.846c-0.508,1.022-0.259,2.259,0.605,3.005c0.467,0.403,1.05,0.607,1.634,0.607
		c0.497,0,0.996-0.148,1.427-0.448c0.967-0.673,23.63-16.696,19.565-36.001c-1.514-7.337-5.12-12.699-8.302-17.43
		c-4.929-7.329-8.489-12.624-3.088-22.403C181.419,89.556,210.076,67.899,210.365,67.682z"/>
        <path id="XMLID_10_" d="M63.99,177.659c-0.964,2.885-0.509,5.75,1.315,8.283c6.096,8.462,27.688,13.123,60.802,13.123
		c0.002,0,0.003,0,0.004,0c4.487,0,9.224-0.088,14.076-0.262c52.943-1.896,72.58-18.389,73.39-19.09
		c0.883-0.764,1.119-2.037,0.57-3.067c-0.549-1.029-1.733-1.546-2.864-1.235c-18.645,5.091-53.463,6.898-77.613,6.898
		c-27.023,0-40.785-1.946-44.154-3.383c1.729-2.374,12.392-6.613,25.605-9.212c1.263-0.248,2.131-1.414,2.006-2.695
		c-0.125-1.281-1.201-2.258-2.488-2.258C106.893,164.762,68.05,165.384,63.99,177.659z"/>
        <path id="XMLID_11_" d="M241.148,160.673c-10.92,0-21.275,5.472-21.711,5.705c-1.01,0.541-1.522,1.699-1.245,2.811
		c0.278,1.111,1.277,1.892,2.423,1.893c0.232,0.001,23.293,0.189,25.382,13.365c1.85,11.367-21.82,29.785-31.097,35.923
		c-1.002,0.663-1.391,1.945-0.926,3.052c0.395,0.943,1.314,1.533,2.304,1.533c0.173,0,0.348-0.018,0.522-0.056
		c2.202-0.47,53.855-11.852,48.394-41.927C261.862,164.541,250.278,160.673,241.148,160.673z"/>
        <path id="XMLID_12_" d="M205.725,216.69c0.18-0.964-0.221-1.944-1.023-2.506l-12.385-8.675c-0.604-0.423-1.367-0.556-2.076-0.368
		c-0.129,0.034-13.081,3.438-31.885,5.526c-7.463,0.837-15.822,1.279-24.175,1.279c-18.799,0-31.091-2.209-32.881-3.829
		c-0.237-0.455-0.162-0.662-0.12-0.777c0.325-0.905,2.068-1.98,3.192-2.405c1.241-0.459,1.91-1.807,1.524-3.073
		c-0.385-1.266-1.69-2.012-2.978-1.702c-12.424,2.998-18.499,7.191-18.057,12.461c0.785,9.343,22.428,14.139,40.725,15.408
		c2.631,0.18,5.477,0.272,8.456,0.272c0.002,0,0.003,0,0.005,0c30.425,0,69.429-9.546,69.819-9.643
		C204.818,218.423,205.544,217.654,205.725,216.69z"/>
        <path id="XMLID_13_" d="M112.351,236.745c0.938-0.611,1.354-1.77,1.021-2.838c-0.332-1.068-1.331-1.769-2.453-1.755
		c-1.665,0.044-16.292,0.704-17.316,10.017c-0.31,2.783,0.487,5.325,2.37,7.556c5.252,6.224,19.428,9.923,43.332,11.31
		c2.828,0.169,5.7,0.254,8.539,0.254c30.39,0,50.857-9.515,51.714-9.92c0.831-0.393,1.379-1.209,1.428-2.127
		c0.049-0.917-0.409-1.788-1.193-2.267l-15.652-9.555c-0.543-0.331-1.193-0.441-1.813-0.314c-0.099,0.021-10.037,2.082-25.035,4.119
		c-2.838,0.385-6.392,0.581-10.562,0.581c-14.982,0-31.646-2.448-34.842-4.05C111.843,237.455,111.902,237.075,112.351,236.745z"/>
        <path id="XMLID_14_" d="M133.681,290.018c69.61-0.059,106.971-12.438,114.168-20.228c2.548-2.757,2.823-5.366,2.606-7.07
		c-0.535-4.194-4.354-6.761-4.788-7.04c-1.045-0.672-2.447-0.496-3.262,0.444c-0.813,0.941-0.832,2.314-0.016,3.253
		c0.439,0.565,0.693,1.51-0.591,2.795c-2.877,2.687-31.897,10.844-80.215,13.294c-6.619,0.345-13.561,0.519-20.633,0.52
		c-43.262,0-74.923-5.925-79.079-9.379c1.603-2.301,12.801-5.979,24.711-8.058c1.342-0.234,2.249-1.499,2.041-2.845
		c-0.208-1.346-1.449-2.273-2.805-2.096c-0.336,0.045-1.475,0.115-2.796,0.195c-19.651,1.2-42.36,3.875-43.545,13.999
		c-0.36,3.086,0.557,5.886,2.726,8.324c5.307,5.963,20.562,13.891,91.475,13.891C133.68,290.018,133.68,290.018,133.681,290.018z"/>
        <path id="XMLID_15_" d="M261.522,271.985c-0.984-0.455-2.146-0.225-2.881,0.567c-0.103,0.11-10.568,11.054-42.035,17.48
		c-12.047,2.414-34.66,3.638-67.211,3.638c-32.612,0-63.643-1.283-63.953-1.296c-1.296-0.063-2.405,0.879-2.581,2.155
		c-0.177,1.276,0.645,2.477,1.897,2.775c0.323,0.077,32.844,7.696,77.31,7.696c21.327,0,42.08-1.733,61.684-5.151
		c36.553-6.408,39.112-24.533,39.203-25.301C263.082,273.474,262.504,272.44,261.522,271.985z"/>
    </symbol>
    <symbol id="javascript" class="icon-back" viewBox="0 0 446.296 446.297">
        <path d="M381.902,113.195c-0.944-28.551-1.467-67.126-1.188-95.697c0.01-1.274-0.193-2.396-0.482-3.453
			c0.553-6.226-3.098-12.796-11.07-12.588C268.521,4.098,167.903,0.157,67.266,0c-8.371-0.016-12.038,7.343-11.006,13.802
			c-0.333,1.122-0.566,2.328-0.551,3.702c1.519,120.089,5.647,292.639,5.776,412.749c0,2.696,0.764,4.88,1.985,6.616
			c0.739,5.088,4.4,9.587,11.019,9.425c43.498-1.082,87.014-1.777,130.479-3.91c38.743-1.899,87.018,0.645,124.047-11.994
			c13.106-4.479,24.836-11.101,34.891-20.683c18.377-17.519,24.648-41.035,26.238-65.815c1.518-23.806-1.285-48.774-1.844-70.706
			C386.869,216.532,383.76,169.838,381.902,113.195z M318.224,327.397c-7.084,0.04-13.929,5.57-10.766,14.065
			c6.368,17.088,9.278,38.304-0.508,54.649c-11.836,19.764-32.955,19.226-53.039,21.759c-12.278,1.549-25.334,0.727-37.717,1.077
			c-9.635,0.269-131.628,3.244-131.628,3.722c-0.287-115.605-4.108-283.668-5.652-399.266c92.917,0.401,185.808,3.593,278.725,1.607
			c-0.355,94.913,8.06,232.117,8.557,307.128c-14.411-4.55-29.31-6.469-44.691-5.438
			C320.291,326.777,319.219,327.052,318.224,327.397z M327.298,406.416c9.334-15.899,11.659-35.409,6.81-56.559
			c11.237,0.437,22.318,2.604,32.804,7.053c0.051,0.127,0.082,0.264,0.127,0.396C363.631,382.366,347.783,397.742,327.298,406.416z"
        />
        <path d="M214.125,138.648c-23.97,0.858-47.936,1.668-71.929,1.732c-15.089,0.041-15.089,23.44,0,23.399
			c10.135-0.025,20.258-0.238,30.389-0.482c4.293,17.194,7.16,34.713,6.794,52.481c-0.134,6.495-0.7,15.219-5.096,20.459
			c-5.037,5.997-16.841-0.716-21.848-3.26c-13.421-6.825-25.263,13.36-11.809,20.2c24.298,12.359,50.396,11.745,59.476-17.718
			c6.941-22.525,1.965-49.83-3.585-72.846c5.873-0.19,11.743-0.358,17.613-0.571C229.171,161.512,229.222,138.108,214.125,138.648z"
        />
        <path d="M265.052,167.228c-2.259-4.687-1.219-8.186-2.803-7.084c6.82-4.763,20.724-1.589,28.143-0.695
			c14.959,1.8,14.792-21.622,0-23.399c-15.63-1.876-39.472-4.014-48.338,12.708c-7.124,13.431,1.696,29.364,8.587,40.908
			c8.491,14.226,19.108,27.226,26.304,42.216c0.59,1.224,1.412,4.265,1.696,5.361c-7.276,3.819-22.855-0.619-30.203-1.979
			c-14.747-2.732-21.049,19.824-6.221,22.562c15.868,2.939,42.081,9.079,54.649-5.307c10.755-12.314,2.66-29.033-4.276-41.002
			C283.867,196.477,272.634,182.941,265.052,167.228z"/>
    </symbol>
    <symbol id="python" class="icon-back" viewBox="0 0 512 512">
        <path d="m116 296c0-30.328125 24.671875-55 55-55h170c13.785156 0 25-11.214844 25-25v-141c0-41.355469-33.644531-75-75-75h-70c-41.355469 0-75 33.644531-75 75v41h110c8.285156 0 15 6.714844 15 15s-6.714844 15-15 15h-181c-41.355469 0-75 33.644531-75 75v70c0 41.355469 33.644531 75 75 75h41zm105-220c-8.285156 0-15-6.714844-15-15s6.714844-15 15-15 15 6.714844 15 15-6.714844 15-15 15zm0 0"/>
        <path d="m437 146h-41v70c0 30.328125-24.671875 55-55 55h-170c-13.785156 0-25 11.214844-25 25v141c0 41.355469 33.644531 75 75 75h70c41.355469 0 75-33.644531 75-75v-41h-110c-8.285156 0-15-6.714844-15-15s6.714844-15 15-15h181c41.355469 0 75-33.644531 75-75v-70c0-41.355469-33.644531-75-75-75zm-146 290c8.285156 0 15 6.714844 15 15s-6.714844 15-15 15-15-6.714844-15-15 6.714844-15 15-15zm0 0"/>
    </symbol>
    <symbol id="css" class="icon-back" viewBox="0 0 512 512">
        <path d="M32,0l40.8,460.8L256,512l183.136-51.168L480,0H32z M392.768,150.688l-5.152,57.888l-15.52,173.568L256,414.208
			l-0.064,0.032l-116-32.128l-8.128-90.752h56.832l4.224,47.104l63.072,17.024l0.064-0.064l63.136-17.024l8.608-78.432
			l-198.656,0.544l-5.632-53.664l209.056-2.432l4.224-57.44l-218.88,0.608l-3.68-53.376H256h141.824L392.768,150.688z"/>
    </symbol>
    <symbol id="mysql" class="icon-back" viewBox="0 0 490.667 490.667">
        <path d="M245.333,0C172.928,0,96,22.421,96,64v192c0,42.027,75.115,64,149.333,64s149.333-21.973,149.333-64V64
			C394.667,22.421,317.739,0,245.333,0z M373.333,256c0,20.181-52.565,42.667-128,42.667s-128-22.485-128-42.667v-29.909
			c27.883,19.584,78.933,29.909,128,29.909s100.117-10.325,128-29.909V256z M373.333,192c0,17.813-48.704,42.667-128,42.667
			s-128-24.853-128-42.667v-29.909c27.883,19.584,78.933,29.909,128,29.909s100.117-10.325,128-29.909V192z M373.333,128
			c0,17.813-48.704,42.667-128,42.667s-128-24.853-128-42.667V98.091c27.883,19.584,78.933,29.909,128,29.909
			s100.117-10.325,128-29.909V128z M245.333,106.667c-79.296,0-128-24.853-128-42.667c0-17.813,48.704-42.667,128-42.667
			s128,24.853,128,42.667C373.333,81.813,324.629,106.667,245.333,106.667z"/>
        <path d="M248.661,384.405l-3.157-0.533C226.795,380.821,224,375.957,224,373.333c0-4.245,8.512-10.667,21.355-10.667
			c12.608,0,20.928,5.995,21.355,10.304c0.555,5.867,5.739,10.389,11.627,9.6c5.867-0.555,10.155-5.76,9.6-11.627
			c-1.621-16.896-19.925-29.632-42.603-29.632c-23.936,0-42.688,14.059-42.688,32c0,16.704,13.248,27.328,39.403,31.595
			l1.728-10.517l1.429,11.051c17.728,2.923,21.44,7.36,21.44,10.56c0,4.245-8.512,10.667-21.355,10.667
			c-12.608,0-20.928-6.016-21.355-10.325c-0.555-5.867-5.611-10.24-11.627-9.6c-5.867,0.555-10.155,5.76-9.6,11.627
			C204.331,435.264,222.635,448,245.312,448C269.248,448,288,433.941,288,416C288,399.317,274.773,388.693,248.661,384.405z"/>
        <path d="M394.667,373.333c0-17.643-14.357-32-32-32h-21.333c-17.643,0-32,14.357-32,32V416c0,17.643,14.357,32,32,32h21.333
			c4.928,0,9.536-1.216,13.696-3.2l0.085,0.085c2.091,2.069,4.821,3.115,7.552,3.115s5.461-1.045,7.531-3.115
			c4.16-4.16,4.16-10.923,0-15.083l-0.085-0.085c2.005-4.16,3.221-8.789,3.221-13.717V373.333z M373.333,411.605l-3.136-3.136
			c-4.16-4.16-10.923-4.16-15.083,0c-4.16,4.16-4.16,10.923,0,15.083l3.115,3.115h-16.896c-5.888,0-10.667-4.779-10.667-10.667
			v-42.667c0-5.888,4.779-10.667,10.667-10.667h21.333c5.888,0,10.667,4.779,10.667,10.667V411.605z"/>
        <path d="M469.333,426.667h-32V352c0-5.888-4.779-10.667-10.667-10.667c-5.888,0-10.667,4.779-10.667,10.667v85.333
			c0,5.888,4.779,10.667,10.667,10.667h42.667c5.888,0,10.667-4.779,10.667-10.667C480,431.445,475.221,426.667,469.333,426.667z"/>
        <path d="M175.445,385.109c-5.291-2.624-11.669-0.491-14.315,4.779l-11.797,23.616l-11.797-23.595
			c-2.645-5.269-9.045-7.403-14.315-4.779c-5.269,2.645-7.424,9.045-4.779,14.315l18.965,37.909l-18.944,37.867
			c-2.624,5.269-0.491,11.669,4.779,14.315c1.536,0.768,3.157,1.131,4.757,1.131c3.904,0,7.659-2.155,9.557-5.909l42.667-85.333
			C182.848,394.155,180.715,387.755,175.445,385.109z"/>
        <path d="M88.704,341.888c-4.331-1.472-9.152,0.043-11.904,3.712l-23.467,31.275L29.867,345.6
			c-2.752-3.669-7.509-5.184-11.904-3.712c-4.352,1.451-7.296,5.525-7.296,10.112v85.333c0,5.888,4.779,10.667,10.667,10.667
			S32,443.221,32,437.333V384l12.8,17.067c4.032,5.376,13.056,5.376,17.067,0L74.667,384v53.333c0,5.888,4.779,10.667,10.667,10.667
			S96,443.221,96,437.333V352C96,347.413,93.056,343.339,88.704,341.888z"/>
    </symbol>
    <symbol id="php" class="icon-back" viewBox="0 0 482.139 482.139">
        <path d="M69.826,105.072c-4.004,0-6.713,0.396-8.132,0.774v25.689c1.687,0.378,3.751,0.504,6.588,0.504
		c10.464,0,16.894-5.279,16.894-14.185C85.176,109.849,79.629,105.072,69.826,105.072z"/>
        <path d="M249.148,117.854c0-8.006-5.549-12.782-15.352-12.782c-4.004,0-6.715,0.396-8.133,0.774v25.689
		c1.67,0.378,3.75,0.504,6.588,0.504C242.685,132.039,249.148,126.76,249.148,117.854z"/>
        <path d="M357.17,0H163.521c-28.29,0-51.316,23.041-51.316,51.315v9.504h-88.43c-11.428,0-20.68,9.251-20.68,20.677v105.295
		c0,11.426,9.252,20.678,20.68,20.678h88.43v223.355c0,28.305,23.026,51.315,51.316,51.315h264.221
		c28.275,0,51.301-23.01,51.301-51.315V121.449L357.17,0z M96.682,137.98c-6.715,6.32-16.643,9.158-28.273,9.158
		c-2.586,0-4.887-0.127-6.714-0.378v31.094H42.213V92.039c6.068-1.024,14.595-1.796,26.589-1.796c12.12,0,20.788,2.317,26.589,6.966
		c5.547,4.381,9.297,11.616,9.297,20.126C104.688,125.847,101.851,133.08,96.682,137.98z M169.367,124.301V90.889h19.607v86.966
		h-19.607v-36.391h-32.402v36.391h-19.731V90.889h19.731v33.412H169.367z M427.742,450.713H163.521
		c-10.953,0-19.874-8.92-19.874-19.889V207.469h139.731c11.426,0,20.676-9.252,20.676-20.678V81.496
		c0-11.426-9.25-20.677-20.676-20.677H143.648v-9.504c0-10.938,8.92-19.858,19.874-19.858l181.889-0.189v67.234
		c0,19.637,15.934,35.586,35.588,35.586l65.863-0.189l0.74,296.925C447.601,441.793,438.695,450.713,427.742,450.713z
		 M206.185,177.855V92.039c6.051-1.024,14.594-1.796,26.572-1.796c12.133,0,20.771,2.317,26.602,6.966
		c5.549,4.381,9.268,11.616,9.268,20.126c0,8.512-2.836,15.745-7.975,20.645c-6.713,6.32-16.674,9.158-28.275,9.158
		c-2.584,0-4.916-0.127-6.713-0.378v31.094H206.185z"/>
        <path d="M296.019,286.965c0-4.713-2.412-9.111-6.383-11.647c-3.973-2.539-8.984-2.87-13.256-0.883l-76.531,35.555
		c-6.289,2.916-10.322,9.236-10.322,16.186c0,6.935,4.033,13.255,10.322,16.171l76.531,35.57c4.272,1.985,9.268,1.654,13.256-0.883
		c3.971-2.537,6.383-6.934,6.383-11.662c0-5.484-3.248-10.449-8.275-12.654l-60.582-26.557l60.582-26.541
		C292.771,297.412,296.019,292.448,296.019,286.965z"/>
        <path d="M360.385,248.288c-8.953,0-17.068,1.545-23.705,3.734c-6.037,2.001-9.359,8.464-7.471,14.531
		c1.893,6.036,8.244,9.488,14.326,7.77c3.326-0.93,6.762-1.449,9.883-1.449c10.244,0.409,14.973,5.139,14.973,12.309
		c0,6.981-5.328,13.539-11.898,21.323c-9.236,11.08-12.719,21.749-12.09,32.183l0.064,1.798c0.076,1.985,1.701,3.546,3.688,3.546
		h20.031c2.033,0,3.688-1.656,3.688-3.688c-0.205-9.236,2.854-17.227,10.449-25.643c7.803-8.621,17.43-18.864,17.43-34.436
		C399.752,263.244,387.443,248.288,360.385,248.288z"/>
        <path d="M357.529,353.662c-10.668,0-18.264,7.801-18.264,18.659c0,10.669,7.391,18.661,18.264,18.661
		c11.066,0,18.457-7.992,18.457-18.661C375.75,361.463,368.596,353.662,357.529,353.662z"/>
    </symbol>
</svg>